<?xml version="1.0" encoding="UTF-8" standalone="no"?>
<svg width="608px" height="106px" viewBox="0 0 608 106" version="1.1" xmlns="http://www.w3.org/2000/svg" xmlns:xlink="http://www.w3.org/1999/xlink" xmlns:sketch="http://www.bohemiancoding.com/sketch/ns">
    <!-- Generator: Sketch 3.4.2 (15855) - http://www.bohemiancoding.com/sketch -->
    <title>logo</title>
    <desc>Created with Sketch.</desc>
    <defs></defs>
    <g id="LP" stroke="none" stroke-width="1" fill="none" fill-rule="evenodd" sketch:type="MSPage">
        <g id="Artboard-1" sketch:type="MSArtboardGroup" transform="translate(-391.000000, -147.000000)" fill="#DAA150">
            <g id="logo" sketch:type="MSLayerGroup" transform="translate(391.000000, 147.000000)">
                <path d="M214.782785,106 L161.830706,106 C160.850107,106 160.016611,105.657542 159.330191,104.972615 C158.643772,104.287689 158.300568,103.456005 158.300568,102.477538 L158.300568,6.784 C158.300568,5.80553357 158.643772,4.97384958 159.330191,4.28892308 C160.016611,3.60399658 160.850107,3.26153846 161.830706,3.26153846 C162.811305,3.26153846 163.669316,3.60399658 164.404766,4.28892308 C165.140215,4.97384958 165.507934,5.80553357 165.507934,6.784 L165.507934,98.8083077 L214.782785,98.8083077 C215.763384,98.8083077 216.621396,99.1752271 217.356845,99.9090769 C218.092294,100.642927 218.460013,101.499072 218.460013,102.477538 C218.460013,103.456005 218.092294,104.287689 217.356845,104.972615 C216.621396,105.657542 215.763384,106 214.782785,106 L214.782785,106 Z M238.022865,76.6461538 L238.022865,37.4587692 C238.022865,36.4803028 238.366069,35.6486188 239.052488,34.9636923 C239.738908,34.2787658 240.572404,33.9363077 241.553003,33.9363077 C242.533602,33.9363077 243.367099,34.2787658 244.053518,34.9636923 C244.739937,35.6486188 245.083142,36.4803028 245.083142,37.4587692 L245.083142,76.6461538 C245.083142,82.8104924 247.240427,88.0452092 251.555063,92.3504615 C255.869698,96.6557138 261.066795,98.8572303 267.146508,98.9550769 C273.324282,98.8572303 278.594922,96.6557138 282.958587,92.3504615 C287.322253,88.0452092 289.504053,82.8104924 289.504053,76.6461538 L289.504053,37.4587692 C289.504053,36.4803028 289.871772,35.6486188 290.607221,34.9636923 C291.34267,34.2787658 292.200682,33.9363077 293.181281,33.9363077 C294.161879,33.9363077 294.995376,34.2787658 295.681795,34.9636923 C296.368215,35.6486188 296.711419,36.4803028 296.711419,37.4587692 L296.711419,76.6461538 C296.711419,84.7674252 293.84321,91.6899714 288.106706,97.414 C282.370202,103.138029 275.432569,106 267.293597,106 C259.154626,106 252.241507,103.138029 246.554033,97.414 C240.866559,91.6899714 238.022865,84.7674252 238.022865,76.6461538 L238.022865,76.6461538 Z M333.483696,106 L332.601162,106 C331.130263,105.804307 330.149679,104.9237 329.65938,103.358154 L329.65938,37.6055385 C329.65938,36.627072 330.002584,35.8198493 330.689003,35.1838462 C331.375423,34.547843 332.184405,34.2298462 333.115974,34.2298462 C334.047543,34.2298462 334.856525,34.547843 335.542944,35.1838462 C336.229363,35.8198493 336.572568,36.627072 336.572568,37.6055385 L336.572568,44.5036923 C342.358102,37.6544273 349.761513,34.2298462 358.783023,34.2298462 C364.274377,34.2298462 369.299872,35.6241399 373.859657,38.4127692 C378.419442,41.2013986 381.97406,44.8950539 384.523617,49.4938462 C387.171234,44.8950539 390.799396,41.2013986 395.408211,38.4127692 C400.017026,35.6241399 405.018006,34.2298462 410.4113,34.2298462 C418.452212,34.2298462 425.340816,37.0918175 431.07732,42.8158462 C436.813824,48.5398748 439.682033,55.4134983 439.682033,63.4369231 L439.682033,102.624308 C439.682033,103.504927 439.338829,104.287689 438.652409,104.972615 C437.96599,105.657542 437.132493,106 436.151894,106 C435.171295,106 434.362313,105.657542 433.724924,104.972615 C433.087535,104.287689 432.768845,103.504927 432.768845,102.624308 L432.768845,63.4369231 C432.572725,57.2725846 430.317381,52.0134064 426.002746,47.6592308 C421.68811,43.3050552 416.491014,41.128 410.4113,41.128 C404.331587,41.128 399.109976,43.3295164 394.74631,47.7326154 C390.382645,52.1357143 388.200845,57.3704312 388.200845,63.4369231 L388.200845,103.064615 L388.053756,103.358154 L388.053756,103.651692 C387.857636,104.336619 387.367344,104.899229 386.582865,105.339538 C385.798386,105.779848 385.111977,106 384.523617,106 L383.788172,106 L382.611459,105.412923 C382.513399,105.412923 382.292767,105.217233 381.949558,104.825846 C381.606348,104.43446 381.410231,104.189847 381.361201,104.092 C381.312171,103.994153 381.263142,103.871847 381.214112,103.725077 C381.165082,103.578307 381.091538,103.456 380.993479,103.358154 L380.993479,63.4369231 C380.993479,57.2725846 378.836193,52.0134064 374.521558,47.6592308 C370.206922,43.3050552 364.960797,41.128 358.783023,41.128 C352.60525,41.128 347.359124,43.3050552 343.044488,47.6592308 C338.729853,52.0134064 336.572568,57.2725846 336.572568,63.4369231 L336.572568,102.624308 C336.572568,103.896314 336.033246,104.825843 334.954587,105.412923 C334.562348,105.80431 334.072056,106 333.483696,106 L333.483696,106 Z M469.541122,102.477538 L469.541122,6.784 C469.541122,5.80553357 469.884327,4.97384958 470.570746,4.28892308 C471.257165,3.60399658 472.090662,3.26153846 473.071261,3.26153846 C474.05186,3.26153846 474.909871,3.60399658 475.64532,4.28892308 C476.380769,4.97384958 476.748488,5.80553357 476.748488,6.784 L476.748488,48.1729231 C479.984465,43.8676708 484.00486,40.4430896 488.809795,37.8990769 C493.61473,35.3550642 498.811827,34.0830769 504.401241,34.0830769 C514.109171,34.0830769 522.346078,37.6055032 529.112211,44.6504615 C535.878344,51.6954198 539.26136,60.1834888 539.26136,70.1149231 C539.26136,80.0463573 535.878344,88.509965 529.112211,95.506 C522.346078,102.502035 514.109171,106 504.401241,106 C498.811827,106 493.61473,104.752474 488.809795,102.257385 C484.00486,99.7622952 479.984465,96.3621754 476.748488,92.0569231 L476.748488,102.477538 C476.748488,103.456005 476.380769,104.287689 475.64532,104.972615 C474.909871,105.657542 474.05186,106 473.071261,106 C472.090662,106 471.257165,105.657542 470.570746,104.972615 C469.884327,104.287689 469.541122,103.456005 469.541122,102.477538 L469.541122,102.477538 Z M476.748488,69.0141538 L476.748488,70.1883077 C476.748488,78.1138858 479.46961,84.8652029 484.911934,90.4424615 C490.354258,96.0197202 496.875144,98.8083077 504.474785,98.8083077 C512.074427,98.8083077 518.570798,96.0197202 523.964092,90.4424615 C529.357387,84.8652029 532.053993,78.0894245 532.053993,70.1149231 C532.053993,62.1404217 529.357387,55.340182 523.964092,49.714 C518.570798,44.087818 512.098942,41.2747692 504.54833,41.2747692 C496.997718,41.2747692 490.550377,43.9655116 485.206112,49.3470769 C479.861848,54.7286423 477.042668,61.284269 476.748488,69.0141538 L476.748488,69.0141538 Z M566.619934,102.477538 L566.619934,37.7523077 C566.619934,36.7738413 566.963138,35.9421573 567.649558,35.2572308 C568.335977,34.5723043 569.169474,34.2298462 570.150073,34.2298462 C571.130672,34.2298462 571.964168,34.5723043 572.650587,35.2572308 C573.337007,35.9421573 573.680211,36.7738413 573.680211,37.7523077 L573.680211,53.6033846 C574.072451,52.8206115 574.415655,52.2335404 574.709835,51.8421538 C582.260447,40.1005567 591.870173,34.2298462 603.5393,34.2298462 C604.519899,34.2298462 605.353396,34.5723043 606.039815,35.2572308 C606.726234,35.9421573 607.069439,36.7738413 607.069439,37.7523077 C607.069439,38.7307741 606.726234,39.5624581 606.039815,40.2473846 C605.353396,40.9323111 604.519899,41.2747692 603.5393,41.2747692 C595.694509,41.2747692 588.73236,45.1885762 582.652647,53.0163077 C579.122491,57.7129466 576.229767,63.2901216 573.974389,69.748 C573.77827,70.1393866 573.680211,70.5307673 573.680211,70.9221538 L573.680211,102.477538 C573.680211,103.456005 573.337007,104.287689 572.650587,104.972615 C571.964168,105.657542 571.130672,106 570.150073,106 C569.169474,106 568.335977,105.657542 567.649558,104.972615 C566.963138,104.287689 566.619934,103.456005 566.619934,102.477538 L566.619934,102.477538 Z" id="Lumbr" sketch:type="MSShapeGroup"></path>
                <path d="M104.100912,24.9301667 C104.100912,11.0054606 85.4724654,0.0981732313 61.691393,0.0981732313 C37.9103206,0.0981732313 19.2818743,11.0056618 19.2818743,24.9301667 C19.2818743,25.1514588 19.2832856,43.5018061 19.2832856,43.5018061 L6.69376991,37.2205717 C5.21550867,36.483029 3.98287181,37.2313085 3.94094879,38.8781373 L3.57097135,53.4116695 L19.2832856,71.1480318 L19.2832856,79.0952353 C19.2832856,89.7071983 10.6330753,98.3408098 0.000201613107,98.3408098 L0.000201613107,104.512043 C14.0431594,104.512043 25.4679693,93.1100676 25.4679693,79.0952353 L25.4679693,68.811187 L9.81492928,51.1420171 L9.9522278,45.7465129 L25.4679693,53.4875124 L25.4679693,38.0232167 C32.8542671,45.1184456 46.1752483,49.7627637 61.6915946,49.7627637 C77.2099571,49.7627637 90.5319464,45.1170374 97.9178409,38.0206014 L97.9178409,77.392493 C97.9178409,91.4057159 109.343256,102.806284 123.38702,102.806284 L123.38702,96.6350499 C112.753541,96.6352511 104.102323,88.0030478 104.102323,77.3922919 C104.102323,77.3922919 104.100912,25.1514588 104.100912,24.9301667 Z M61.691393,43.5917311 C42.0556877,43.5917311 25.466558,35.0458318 25.466558,24.930569 C25.466558,14.8153062 42.0556877,6.27001045 61.691393,6.27001045 C81.3270984,6.27001045 97.916228,14.8155074 97.916228,24.930569 C97.916228,35.0456307 81.3275016,43.5917311 61.691393,43.5917311 Z M82.1470589,13.7764403 C76.6329404,11.504575 69.3680137,10.2530674 61.691393,10.2530674 C54.0143691,10.2530674 46.7500473,11.504575 41.2357272,13.7764403 C34.8538659,16.4061954 31.3397494,20.2395784 31.3397494,24.5708688 C31.3397494,28.9021591 34.8540675,32.7359444 41.2357272,35.3656995 C46.7494424,37.6375649 54.0143691,38.8890724 61.691393,38.8890724 C69.3680137,38.8890724 76.6323355,37.6375649 82.1470589,35.3656995 C88.5283153,32.7359444 92.0430366,28.9021591 92.0430366,24.5708688 C92.0430366,20.2395784 88.5283153,16.4063966 82.1470589,13.7764403 Z M79.7861694,29.6617946 C75.0031,31.633105 68.5772871,32.7182411 61.691393,32.7182411 C54.805499,32.7182411 48.3792828,31.6329038 43.5966167,29.6617946 C39.1143541,27.8152124 37.5244331,25.7650415 37.5244331,24.5708688 C37.5244331,23.376696 39.1147573,21.3273298 43.5966167,19.4803453 C48.3790812,17.5090349 54.805499,16.4236976 61.691393,16.4236976 C68.5772871,16.4236976 75.0031,17.5090349 79.7861694,19.4803453 C84.268432,21.3269275 85.8581513,23.376696 85.8581513,24.5708688 C85.8581513,25.7650415 84.268432,27.8154136 79.7861694,29.6617946 Z" id="Shape" sketch:type="MSShapeGroup"></path>
            </g>
        </g>
    </g>
</svg>